<svg width="125" height="125" viewBox="0 0 125 125" fill="none" xmlns="http://www.w3.org/2000/svg">
<g clip-path="url(#clip0)">
<mask id="mask0" mask-type="alpha" maskUnits="userSpaceOnUse" x="0" y="0" width="125" height="125">
<rect width="124.432" height="124.432" rx="23.043" fill="#F4F0FF"/>
</mask>
<g mask="url(#mask0)">
<path d="M46.8761 32.787C46.8761 34.662 46.4864 36.4422 45.7806 38.0539H62.6771C63.3755 38.0539 64.0453 38.3314 64.5392 38.8253C65.0331 39.3191 65.3105 39.989 65.3105 40.6874V51.2214H62.6771C59.8833 51.2214 57.2039 52.3312 55.2284 54.3067C53.2529 56.2822 52.1431 58.9616 52.1431 61.7553V64.3888H41.6091C40.9107 64.3888 40.2409 64.1114 39.747 63.6175C39.2531 63.1236 38.9757 62.4538 38.9757 61.7553V44.8589C36.4914 45.9457 33.7314 46.2364 31.0752 45.6911V61.7553C31.0752 64.5491 32.185 67.2285 34.1605 69.204C36.136 71.1795 38.8154 72.2893 41.6091 72.2893H52.1431V82.8232C52.1431 85.617 53.2529 88.2964 55.2284 90.2719C57.2039 92.2474 59.8833 93.3572 62.6771 93.3572H78.7413C78.2029 90.7006 78.4934 87.9428 79.5735 85.4567H62.6771C61.9786 85.4567 61.3088 85.1793 60.8149 84.6854C60.321 84.1915 60.0436 83.5217 60.0436 82.8232V72.2893H62.6771C65.4708 72.2893 68.1502 71.1795 70.1257 69.204C72.1012 67.2285 73.211 64.5491 73.211 61.7553V59.1218H83.745C84.4434 59.1218 85.1132 59.3993 85.6071 59.8932C86.101 60.387 86.3785 61.0569 86.3785 61.7553V78.6518C88.8627 77.5646 91.6227 77.2739 94.2789 77.8196V61.7553C94.2789 58.9616 93.1691 56.2822 91.1936 54.3067C89.2181 52.3312 86.5387 51.2214 83.745 51.2214H73.211V40.6874C73.211 37.8936 72.1012 35.2143 70.1257 33.2388C68.1502 31.2633 65.4708 30.1535 62.6771 30.1535H46.6128C46.7866 31.0067 46.8761 31.8863 46.8761 32.787ZM65.3105 59.1218V61.7553C65.3105 62.4538 65.0331 63.1236 64.5392 63.6175C64.0453 64.1114 63.3755 64.3888 62.6771 64.3888H60.0436V61.7553C60.0436 61.0569 60.321 60.387 60.8149 59.8932C61.3088 59.3993 61.9786 59.1218 62.6771 59.1218H65.3105Z" fill="#5F2EEA" stroke="#5F2EEA" stroke-width="1.84344"/>
<path d="M41.6092 32.7869C41.6092 34.8823 40.7768 36.8918 39.2952 38.3734C37.8135 39.855 35.804 40.6874 33.7087 40.6874C31.6134 40.6874 29.6038 39.855 28.1222 38.3734C26.6406 36.8918 25.8082 34.8823 25.8082 32.7869C25.8082 30.6916 26.6406 28.6821 28.1222 27.2005C29.6038 25.7188 31.6134 24.8865 33.7087 24.8865C35.804 24.8865 37.8135 25.7188 39.2952 27.2005C40.7768 28.6821 41.6092 30.6916 41.6092 32.7869Z" fill="#5F2EEA" stroke="#5F2EEA" stroke-width="1.84344"/>
<path d="M99.5457 90.7234C99.5457 92.8188 98.7133 94.8283 97.2317 96.3099C95.7501 97.7915 93.7406 98.6239 91.6452 98.6239C89.5499 98.6239 87.5404 97.7915 86.0587 96.3099C84.5771 94.8283 83.7448 92.8188 83.7448 90.7234C83.7448 88.6281 84.5771 86.6186 86.0587 85.1369C87.5404 83.6553 89.5499 82.823 91.6452 82.823C93.7406 82.823 95.7501 83.6553 97.2317 85.1369C98.7133 86.6186 99.5457 88.6281 99.5457 90.7234Z" fill="#5F2EEA" stroke="#5F2EEA" stroke-width="1.84344"/>
<path d="M99.5457 32.7869C99.5457 34.8823 98.7133 36.8918 97.2317 38.3734C95.7501 39.855 93.7406 40.6874 91.6452 40.6874C89.5499 40.6874 87.5404 39.855 86.0587 38.3734C84.5771 36.8918 83.7448 34.8823 83.7448 32.7869C83.7448 30.6916 84.5771 28.6821 86.0587 27.2005C87.5404 25.7188 89.5499 24.8865 91.6452 24.8865C93.7406 24.8865 95.7501 25.7188 97.2317 27.2005C98.7133 28.6821 99.5457 30.6916 99.5457 32.7869Z" fill="#5F2EEA" stroke="#5F2EEA" stroke-width="1.84344"/>
<path d="M41.6092 90.7234C41.6092 92.8188 40.7768 94.8283 39.2952 96.3099C37.8135 97.7915 35.804 98.6239 33.7087 98.6239C31.6134 98.6239 29.6038 97.7915 28.1222 96.3099C26.6406 94.8283 25.8082 92.8188 25.8082 90.7234C25.8082 88.6281 26.6406 86.6186 28.1222 85.1369C29.6038 83.6553 31.6134 82.823 33.7087 82.823C35.804 82.823 37.8135 83.6553 39.2952 85.1369C40.7768 86.6186 41.6092 88.6281 41.6092 90.7234Z" fill="#5F2EEA" stroke="#5F2EEA" stroke-width="1.84344"/>
</g>
<rect width="125.354" height="125.354" transform="translate(-0.460815)" fill="#2A00A2"/>
<path d="M51.1063 68.2844C51.4049 67.04 51.5543 65.7957 51.5543 64.6012C51.5543 58.1805 46.7761 53.1534 39.9572 53.1534C32.8396 53.0041 26.9167 58.9271 27.066 66.0446C26.9167 73.1621 32.9392 79.0851 40.5544 78.9358C44.1879 78.9358 47.4729 77.6915 50.4095 75.2526L47.6222 70.6735C45.482 72.316 43.1924 73.1621 40.7535 73.1621C37.1699 73.1621 34.6315 71.4201 33.8351 68.2844H51.1063ZM33.8351 63.5559C34.5817 60.5198 36.8712 58.5786 39.7083 58.5786C42.6449 58.5786 44.9842 60.5198 45.034 63.5559H33.8351ZM67.6212 53.7009L61.3996 67.6373L55.178 53.7009H48.1102L60.3046 78.9358H62.5444L74.7387 53.7009H67.6212ZM71.3075 65.9948C71.1582 73.0128 77.2305 79.0353 84.4476 78.886C91.6646 79.0353 97.8862 73.0128 97.7369 65.9948C97.8862 58.9768 91.7144 53.0538 84.4973 53.1534C77.2802 53.0041 71.1582 58.9768 71.3075 65.9948ZM90.8683 66.0446C90.8683 69.8771 88.1307 72.7142 84.4973 72.7142C80.7644 72.7142 78.1264 69.8771 78.1264 66.0446C78.1264 62.1125 80.7644 59.2755 84.4973 59.2755C88.1307 59.2755 90.8683 62.2121 90.8683 66.0446Z" fill="white"/>
</g>
<defs>
<clipPath id="clip0">
<path d="M0 23.043C0 10.3167 10.3167 0 23.043 0H101.389C114.116 0 124.432 10.3167 124.432 23.043V101.389C124.432 114.116 114.116 124.432 101.389 124.432H23.043C10.3167 124.432 0 114.116 0 101.389V23.043Z" fill="white"/>
</clipPath>
</defs>
</svg>
